<svg xmlns="http://www.w3.org/2000/svg" xmlns:xlink="http://www.w3.org/1999/xlink" width="500" zoomAndPan="magnify" viewBox="0 0 375 374.999991" height="500" preserveAspectRatio="xMidYMid meet" version="1.0"><defs><g/></defs><g fill="#000000" fill-opacity="1"><g transform="translate(-0.829633, 215.781041)"><g><path d="M 73.8125 -49.609375 L 61.640625 0 L 44.671875 0 L 37.859375 -30.390625 L 30.890625 0 L 13.9375 0 L 1.90625 -49.609375 L 16.8125 -49.609375 L 22.578125 -15.6875 L 30.390625 -49.609375 L 45.515625 -49.609375 L 53.125 -15.96875 L 58.890625 -49.609375 Z M 73.8125 -49.609375 "/></g></g></g><g fill="#000000" fill-opacity="1"><g transform="translate(71.353248, 215.781041)"><g><path d="M 41.65625 -20.1875 C 41.65625 -19.113281 41.582031 -18.035156 41.4375 -16.953125 L 15.34375 -16.953125 C 15.476562 -14.796875 16.070312 -13.1875 17.125 -12.125 C 18.1875 -11.070312 19.535156 -10.546875 21.171875 -10.546875 C 23.472656 -10.546875 25.117188 -11.582031 26.109375 -13.65625 L 40.8125 -13.65625 C 40.195312 -10.925781 39.007812 -8.492188 37.25 -6.359375 C 35.488281 -4.234375 33.269531 -2.554688 30.59375 -1.328125 C 27.925781 -0.109375 24.972656 0.5 21.734375 0.5 C 17.847656 0.5 14.390625 -0.320312 11.359375 -1.96875 C 8.335938 -3.613281 5.96875 -5.957031 4.25 -9 C 2.539062 -12.050781 1.6875 -15.640625 1.6875 -19.765625 C 1.6875 -23.898438 2.53125 -27.476562 4.21875 -30.5 C 5.90625 -33.519531 8.257812 -35.851562 11.28125 -37.5 C 14.3125 -39.144531 17.796875 -39.96875 21.734375 -39.96875 C 25.628906 -39.96875 29.078125 -39.171875 32.078125 -37.578125 C 35.085938 -35.984375 37.4375 -33.695312 39.125 -30.71875 C 40.8125 -27.738281 41.65625 -24.226562 41.65625 -20.1875 Z M 27.578125 -23.640625 C 27.578125 -25.328125 27.015625 -26.648438 25.890625 -27.609375 C 24.765625 -28.578125 23.359375 -29.0625 21.671875 -29.0625 C 19.984375 -29.0625 18.597656 -28.601562 17.515625 -27.6875 C 16.441406 -26.769531 15.738281 -25.421875 15.40625 -23.640625 Z M 27.578125 -23.640625 "/></g></g></g><g fill="#000000" fill-opacity="1"><g transform="translate(111.172992, 215.781041)"><g><path d="M 17.734375 -52.0625 L 17.734375 0 L 3.9375 0 L 3.9375 -52.0625 Z M 17.734375 -52.0625 "/></g></g></g><g fill="#000000" fill-opacity="1"><g transform="translate(129.323503, 215.781041)"><g><path d="M 17.734375 -52.0625 L 17.734375 0 L 3.9375 0 L 3.9375 -52.0625 Z M 17.734375 -52.0625 "/></g></g></g><g fill="#000000" fill-opacity="1"><g transform="translate(147.474014, 215.781041)"><g><path d="M 49.890625 0 L 36.09375 0 L 17.734375 -27.71875 L 17.734375 0 L 3.9375 0 L 3.9375 -49.609375 L 17.734375 -49.609375 L 36.09375 -21.53125 L 36.09375 -49.609375 L 49.890625 -49.609375 Z M 49.890625 0 "/></g></g></g><g fill="#000000" fill-opacity="1"><g transform="translate(197.776591, 215.781041)"><g><path d="M 1.6875 -19.765625 C 1.6875 -23.847656 2.425781 -27.410156 3.90625 -30.453125 C 5.382812 -33.503906 7.398438 -35.851562 9.953125 -37.5 C 12.515625 -39.144531 15.363281 -39.96875 18.5 -39.96875 C 21.21875 -39.96875 23.5625 -39.425781 25.53125 -38.34375 C 27.507812 -37.269531 29.035156 -35.816406 30.109375 -33.984375 L 30.109375 -39.46875 L 43.90625 -39.46875 L 43.90625 0 L 30.109375 0 L 30.109375 -5.484375 C 29.035156 -3.660156 27.5 -2.207031 25.5 -1.125 C 23.507812 -0.0390625 21.175781 0.5 18.5 0.5 C 15.363281 0.5 12.515625 -0.320312 9.953125 -1.96875 C 7.398438 -3.613281 5.382812 -5.972656 3.90625 -9.046875 C 2.425781 -12.117188 1.6875 -15.691406 1.6875 -19.765625 Z M 30.109375 -19.765625 C 30.109375 -22.304688 29.414062 -24.300781 28.03125 -25.75 C 26.65625 -27.207031 24.957031 -27.9375 22.9375 -27.9375 C 20.875 -27.9375 19.160156 -27.21875 17.796875 -25.78125 C 16.441406 -24.351562 15.765625 -22.347656 15.765625 -19.765625 C 15.765625 -17.234375 16.441406 -15.226562 17.796875 -13.75 C 19.160156 -12.269531 20.875 -11.53125 22.9375 -11.53125 C 24.957031 -11.53125 26.65625 -12.257812 28.03125 -13.71875 C 29.414062 -15.175781 30.109375 -17.191406 30.109375 -19.765625 Z M 30.109375 -19.765625 "/></g></g></g><g fill="#000000" fill-opacity="1"><g transform="translate(242.099041, 215.781041)"><g><path d="M 27.234375 -11.75 L 27.234375 0 L 21.25 0 C 11.164062 0 6.125 -4.992188 6.125 -14.984375 L 6.125 -28 L 1.265625 -28 L 1.265625 -39.46875 L 6.125 -39.46875 L 6.125 -49.046875 L 19.984375 -49.046875 L 19.984375 -39.46875 L 27.15625 -39.46875 L 27.15625 -28 L 19.984375 -28 L 19.984375 -14.78125 C 19.984375 -13.695312 20.226562 -12.921875 20.71875 -12.453125 C 21.207031 -11.984375 22.039062 -11.75 23.21875 -11.75 Z M 27.234375 -11.75 "/></g></g></g><g fill="#000000" fill-opacity="1"><g transform="translate(268.199622, 215.781041)"><g><path d="M 10.90625 -43.125 C 8.46875 -43.125 6.507812 -43.789062 5.03125 -45.125 C 3.550781 -46.46875 2.8125 -48.148438 2.8125 -50.171875 C 2.8125 -52.234375 3.550781 -53.941406 5.03125 -55.296875 C 6.507812 -56.660156 8.46875 -57.34375 10.90625 -57.34375 C 13.300781 -57.34375 15.234375 -56.660156 16.703125 -55.296875 C 18.179688 -53.941406 18.921875 -52.234375 18.921875 -50.171875 C 18.921875 -48.148438 18.179688 -46.46875 16.703125 -45.125 C 15.234375 -43.789062 13.300781 -43.125 10.90625 -43.125 Z M 17.734375 -39.46875 L 17.734375 0 L 3.9375 0 L 3.9375 -39.46875 Z M 17.734375 -39.46875 "/></g></g></g><g fill="#000000" fill-opacity="1"><g transform="translate(286.35014, 215.781041)"><g><path d="M 22.296875 0.5 C 18.359375 0.5 14.828125 -0.320312 11.703125 -1.96875 C 8.585938 -3.613281 6.140625 -5.957031 4.359375 -9 C 2.578125 -12.050781 1.6875 -15.640625 1.6875 -19.765625 C 1.6875 -23.847656 2.585938 -27.410156 4.390625 -30.453125 C 6.203125 -33.503906 8.664062 -35.851562 11.78125 -37.5 C 14.90625 -39.144531 18.4375 -39.96875 22.375 -39.96875 C 26.3125 -39.96875 29.835938 -39.144531 32.953125 -37.5 C 36.078125 -35.851562 38.539062 -33.503906 40.34375 -30.453125 C 42.15625 -27.410156 43.0625 -23.847656 43.0625 -19.765625 C 43.0625 -15.691406 42.15625 -12.117188 40.34375 -9.046875 C 38.539062 -5.972656 36.066406 -3.613281 32.921875 -1.96875 C 29.785156 -0.320312 26.242188 0.5 22.296875 0.5 Z M 22.296875 -11.46875 C 24.222656 -11.46875 25.832031 -12.179688 27.125 -13.609375 C 28.414062 -15.046875 29.0625 -17.097656 29.0625 -19.765625 C 29.0625 -22.441406 28.414062 -24.484375 27.125 -25.890625 C 25.832031 -27.296875 24.25 -28 22.375 -28 C 20.5 -28 18.925781 -27.296875 17.65625 -25.890625 C 16.394531 -24.484375 15.765625 -22.441406 15.765625 -19.765625 C 15.765625 -17.046875 16.375 -14.984375 17.59375 -13.578125 C 18.8125 -12.171875 20.378906 -11.46875 22.296875 -11.46875 Z M 22.296875 -11.46875 "/></g></g></g><g fill="#000000" fill-opacity="1"><g transform="translate(327.576972, 215.781041)"><g><path d="M 29.765625 -39.828125 C 34.316406 -39.828125 37.925781 -38.3125 40.59375 -35.28125 C 43.269531 -32.257812 44.609375 -28.164062 44.609375 -23 L 44.609375 0 L 30.8125 0 L 30.8125 -21.171875 C 30.8125 -23.429688 30.222656 -25.203125 29.046875 -26.484375 C 27.878906 -27.773438 26.3125 -28.421875 24.34375 -28.421875 C 22.28125 -28.421875 20.660156 -27.773438 19.484375 -26.484375 C 18.316406 -25.203125 17.734375 -23.429688 17.734375 -21.171875 L 17.734375 0 L 3.9375 0 L 3.9375 -39.46875 L 17.734375 -39.46875 L 17.734375 -33.84375 C 18.953125 -35.625 20.59375 -37.066406 22.65625 -38.171875 C 24.71875 -39.273438 27.085938 -39.828125 29.765625 -39.828125 Z M 29.765625 -39.828125 "/></g></g></g></svg>