<svg xmlns="http://www.w3.org/2000/svg" xmlns:xlink="http://www.w3.org/1999/xlink" width="500" zoomAndPan="magnify" viewBox="0 0 375 374.999991" height="500" preserveAspectRatio="xMidYMid meet" version="1.0"><defs><g/></defs><path fill="#000000" d="M 81.097656 62.113281 L 180.0625 62.113281 C 214.480469 62.113281 242.382812 89.929688 242.382812 124.242188 L 242.382812 248.503906 C 242.382812 282.816406 214.480469 310.632812 180.0625 310.632812 L 81.097656 310.632812 C 46.679688 310.632812 18.777344 282.816406 18.777344 248.503906 L 18.777344 124.242188 C 18.777344 89.929688 46.679688 62.113281 81.097656 62.113281 " fill-opacity="1" fill-rule="nonzero"/><g fill="#ffffff" fill-opacity="1"><g transform="translate(47.16357, 238.210285)"><g><path d="M 162.171875 -108.984375 L 135.421875 0 L 98.171875 0 L 83.171875 -66.78125 L 67.859375 0 L 30.609375 0 L 4.171875 -108.984375 L 36.953125 -108.984375 L 49.625 -34.46875 L 66.78125 -108.984375 L 100.015625 -108.984375 L 116.71875 -35.09375 L 129.390625 -108.984375 Z M 162.171875 -108.984375 "/></g></g></g><path stroke-linecap="butt" transform="matrix(2.253793, 0, 0, 2.253793, 210.778584, 114.251652)" fill="none" stroke-linejoin="miter" d="M 48.707262 55.000289 L 35.261181 55.000289 L 17.359071 27.972939 L 17.359071 55.000289 L 3.912991 55.000289 L 3.912991 6.639115 L 17.359071 6.639115 L 35.261181 34.018302 L 35.261181 6.639115 L 48.707262 6.639115 Z M 48.707262 55.000289 " stroke="#000000" stroke-width="5.14482" stroke-opacity="1" stroke-miterlimit="4"/><g fill="#38b6ff" fill-opacity="1"><g transform="translate(210.954662, 238.210285)"><g><path d="M 109.609375 0 L 79.3125 0 L 38.953125 -60.90625 L 38.953125 0 L 8.65625 0 L 8.65625 -108.984375 L 38.953125 -108.984375 L 79.3125 -47.3125 L 79.3125 -108.984375 L 109.609375 -108.984375 Z M 109.609375 0 "/></g></g></g></svg>